<?xml version="1.0" encoding="UTF-8" standalone="no"?>
<!-- Created with Inkscape (http://www.inkscape.org/) -->

<svg
   width="210mm"
   height="297mm"
   viewBox="0 0 210 297"
   version="1.1"
   id="svg41282"
   xml:space="preserve"
   inkscape:version="1.2.2 (732a01da63, 2022-12-09)"
   sodipodi:docname="vaahtera.svg"
   xmlns:inkscape="http://www.inkscape.org/namespaces/inkscape"
   xmlns:sodipodi="http://sodipodi.sourceforge.net/DTD/sodipodi-0.dtd"
   xmlns="http://www.w3.org/2000/svg"
   xmlns:svg="http://www.w3.org/2000/svg"><sodipodi:namedview
     id="namedview41284"
     pagecolor="#ffffff"
     bordercolor="#000000"
     borderopacity="0.25"
     inkscape:showpageshadow="2"
     inkscape:pageopacity="0.0"
     inkscape:pagecheckerboard="0"
     inkscape:deskcolor="#d1d1d1"
     inkscape:document-units="mm"
     showgrid="false"
     inkscape:zoom="0.55226069"
     inkscape:cx="-577.62576"
     inkscape:cy="669.06808"
     inkscape:window-width="1920"
     inkscape:window-height="991"
     inkscape:window-x="3191"
     inkscape:window-y="570"
     inkscape:window-maximized="1"
     inkscape:current-layer="layer1" /><defs
     id="defs41279" /><g
     inkscape:label="Taso 1"
     inkscape:groupmode="layer"
     id="layer1"><path
       style="fill:#bf9f4f;fill-opacity:1;stroke-width:0.264583"
       d="m 98.908866,153.48219 c -0.286754,-0.0101 -0.742101,-0.001 -1.058652,0.55051 -0.316551,0.55164 -5.368074,5.74744 -6.902414,7.64347 -0.942626,1.16483 -3.894625,4.66575 -6.097325,7.00877 -1.650073,1.7552 -2.858873,1.98978 -2.858873,1.98978 0,0 -0.472791,-2.74685 -1.524458,-3.57825 -1.051668,-0.83139 -2.886115,-1.14587 -3.938185,-0.99513 -1.05208,0.15074 -3.33491,1.24845 -5.06036,2.15965 -1.72545,0.9112 -4.404004,1.90557 -4.404004,1.90557 0,0 -0.16279,-1.0108 0.0635,-1.82088 0.22632,-0.81008 1.41049,-1.80379 1.75737,-2.62546 0.346874,-0.82168 0.721944,-2.62529 0.486984,-3.83232 -0.23497,-1.20702 -1.126964,-2.1749 -2.096134,-2.85836 -0.96918,-0.68347 -3.34535,-0.63519 -3.34535,-0.63519 0,0 -2.53222,0.1718 -3.32417,0.14821 -0.79194,-0.0236 -1.39742,-0.0423 -1.39742,-0.0423 0,0 1.10063,-1.28994 1.20687,-2.35022 0.10624,-1.06028 -0.14627,-1.95576 -0.50815,-2.60428 -0.36189,-0.64852 -0.66063,-0.66721 -1.39743,-0.99513 -0.73679,-0.32792 -2.5541,-0.70255 -3.6841,-0.78341 -1.13001,-0.0808 -2.53152,-0.24427 -3.55708,-0.42346 -1.02555,-0.17918 -2.75249,-0.67753 -2.75249,-0.67753 0,0 2.95748,-1.91267 4.76393,-2.90071 1.80645,-0.98804 4.70378,-2.16598 5.9708,-3.09126 1.26702,-0.92529 2.14324,-1.44762 3.11244,-3.32417 0.86599,-1.67673 0.3889,-4.23539 -0.0175,-5.47399 -0.40644,-1.2386 -1.92208,-3.10098 -3.28847,-4.29963 -1.36639,-1.19866 -3.55233,-2.33763 -5.67907,-3.54167 -1.31124,-0.74234 -3.04639,-1.97585 -4.14983,-2.89305 -0.68626,-0.57043 -1.10065,-1.08278 -1.10065,-1.08278 0,0 1.57189,-0.41432 2.32133,-0.91664 0.74944,-0.50232 1.80017,-1.50684 1.96289,-2.0972 0.16273,-0.59036 0.28433,-1.62291 -0.16468,-2.94925 -0.44901,-1.32634 -1.32045,-2.26589 -3.13831,-4.33428 -1.81786,-2.06839 -5.78863,-5.70377 -7.11414,-7.45291 -1.32552,-1.74914 -3.04892,-4.74276 -3.04892,-4.74276 0,0 3.55698,0.50167 6.09783,0.93161 2.54086,0.42994 5.77501,1.22414 8.13045,1.16452 2.35545,-0.0596 5.1815,-0.32875 6.64834,-1.43977 1.46684,-1.11102 1.9411,-2.449658 2.11731,-3.768798 0.1762,-1.31913 -0.21174,-3.578242 -0.21174,-3.578242 0,0 5.10235,1.78757 7.537614,2.879532 2.43526,1.09196 4.55612,2.561178 6.30957,3.154778 1.75344,0.5936 3.853819,1.07642 4.912147,0.97396 1.058329,-0.10245 1.93175,-0.79128 2.371381,-1.35507 0.439631,-0.563798 0.707141,-1.113808 1.016306,-2.477248 0.309165,-1.363442 1.252844,-19.900534 1.252844,-19.900534 0,0 1.627981,1.268069 2.410092,1.342361 0.782111,0.07429 1.576933,0.0058 2.297277,-0.698713 0.374089,-0.365845 1.202588,-1.966414 1.668996,-3.566553 0.209273,-0.717969 0.71297,-2.922984 0.71297,-2.922984 0,0 1.285702,1.230547 1.778537,1.408007 0.492835,0.177461 1.467808,0.263106 1.977864,0.0091 0.335113,-0.166899 1.09558,-0.722335 2.161466,-2.221668 0.723556,-1.017793 2.298851,-4.928896 3.317681,-7.322562 0.48203,-1.132494 0.93811,-1.908886 0.93811,-1.908886 0,0 0.26696,0.454412 0.87648,1.759027 0.60953,1.304614 1.69442,4.732622 2.91349,6.720779 1.21907,1.988157 2.30757,2.71595 2.73133,2.921881 0.42376,0.205932 1.05467,0.150198 1.73618,-0.02117 0.68152,-0.171372 1.89499,-1.302141 1.89499,-1.302141 0,0 1.13681,4.854071 1.86323,5.759069 0.72642,0.904998 1.26145,1.301145 2.23376,1.397422 0.9723,0.09628 2.9007,-1.132761 2.9007,-1.132761 l 0.44006,5.04022 c 0,0 0.71994,13.001604 1.06655,15.175656 0.34662,2.174048 1.66967,3.017408 2.33204,3.213608 0.66238,0.19619 2.44996,0.18457 3.34322,0.0145 0.89326,-0.17004 1.98955,-0.40556 4.54769,-1.67418 1.19163,-0.590938 3.68031,-1.886828 6.09508,-2.942738 2.76915,-1.210872 5.41278,-2.153322 5.41278,-2.153322 0,0 -0.23418,3.307422 0.27462,4.728242 0.50879,1.420808 1.47138,2.163088 2.81451,2.933398 1.34314,0.77031 3.37941,1.00236 4.93182,1.0916 1.5524,0.0893 4.65021,-0.25525 7.00039,-0.80759 2.35017,-0.55234 7.75147,-1.30972 7.75147,-1.30972 0,0 -2.59408,4.49523 -4.38434,6.43661 -1.79026,1.94138 -5.33107,5.30878 -6.69582,6.84465 -1.36475,1.53588 -1.97347,2.97434 -2.12244,3.54255 -0.14897,0.56821 -0.46389,2.06873 0.57318,3.52713 1.03707,1.45839 3.81115,2.1173 3.81115,2.1173 0,0 -2.31952,2.15043 -3.79662,3.16356 -1.4771,1.01313 -4.16349,2.32018 -5.64531,3.1841 -1.48182,0.86392 -3.30331,2.78386 -4.25003,4.13627 -0.94672,1.35242 -1.00996,3.05374 -1.07957,4.00871 -0.0696,0.95496 0.1451,2.10044 0.65274,2.99328 0.50764,0.89285 2.16802,2.51289 3.72131,3.63238 1.55329,1.11949 4.63051,2.27163 6.30833,3.20891 1.67782,0.93727 3.82994,2.261 3.82994,2.261 0,0 -3.3702,0.81374 -5.25694,1.1763 -1.88674,0.36256 -5.31191,0.56016 -6.06702,1.24558 -0.75511,0.68542 -0.90715,1.22437 -0.97609,2.23193 -0.0689,1.00757 1.31486,3.17295 1.31486,3.17295 0,0 -2.41997,-0.11266 -3.79148,-0.0641 -1.3715,0.0485 -3.33272,0.15817 -4.2192,0.57743 -0.88648,0.41926 -1.47965,1.16997 -1.86322,2.202 -0.38356,1.03203 -0.35382,2.4777 -0.0351,3.72132 0.31875,1.24362 1.61817,2.59463 1.94792,3.47238 0.32975,0.87775 0.33877,1.60915 0.33877,1.60915 0,0 -2.31436,-0.69295 -4.12512,-1.68445 -1.81076,-0.99149 -2.87583,-1.58397 -4.17472,-1.95731 -1.29889,-0.37334 -2.44148,-0.67292 -3.47238,-0.42346 -1.0309,0.24946 -2.06374,1.02423 -2.55104,1.99841 -0.4873,0.97418 -0.71687,2.78456 -0.71687,2.78456 0,0 -2.28347,-1.13571 -4.02589,-3.23973 -1.74242,-2.10402 -6.56864,-8.27825 -8.70451,-10.60193 -2.13587,-2.32368 -2.68836,-3.29944 -3.8496,-3.35085 -1.16125,-0.0514 -1.43909,0.37621 -1.69898,1.2105 -0.25989,0.83428 -0.3247,1.83045 -0.32336,3.87706 0.001,2.0466 0.4237,8.84001 0.61251,13.75858 0.18881,4.91857 0.50816,15.75275 0.50816,15.75275 0,0 3.49967,-5.39436 5.5204,-7.04487 2.02073,-1.65051 3.99109,-2.40746 5.84288,-2.89406 1.8518,-0.4866 3.99737,-0.51731 6.08331,-0.30883 2.08594,0.20848 5.21467,1.77459 6.94989,3.23797 1.73522,1.46338 3.38255,3.96087 3.38255,3.96087 0,0 0.41972,-3.14861 0.84693,-3.89584 0.59448,-1.03978 1.44688,-1.80223 2.54076,-2.54077 1.09388,-0.73854 2.41389,-1.03005 3.98054,-1.69384 1.56665,-0.66379 3.73289,-1.53256 5.3604,-2.43641 1.62752,-0.90384 3.17663,-2.0816 4.34895,-3.02411 1.17231,-0.94251 1.72988,-1.49532 2.7404,-2.50055 1.01052,-1.00523 2.48391,-2.89908 3.47238,-3.64176 0.98847,-0.74268 1.6284,-0.99847 2.1173,-1.101 1.10618,-0.23198 1.54052,0.77733 1.75736,1.15393 0.21685,0.3766 0.62501,2.20907 0.46581,4.18168 -0.15921,1.9726 -0.65647,4.11888 -1.11159,5.55793 -0.45511,1.43905 -1.40902,2.92461 -2.29727,4.1605 -0.88824,1.23589 -2.3361,2.43314 -3.43003,3.15478 -1.09394,0.72164 -1.66093,0.92359 -2.65722,1.31273 -0.99629,0.38914 -2.92909,0.65501 -4.02288,0.80458 -1.09378,0.14957 -2.37201,0.65291 -3.1442,1.05865 -0.77218,0.40575 -1.10712,0.89173 -1.58798,1.40801 -0.48085,0.51627 -1.08671,1.31006 -1.61973,1.84205 -0.53302,0.53198 -1.51524,0.99029 -2.17025,1.14335 -0.655,0.15305 -1.57297,-0.0529 -2.08554,-0.16939 -0.51256,-0.11654 -0.92102,-0.33877 -0.92102,-0.33877 0,0 0.54232,1.49095 0.59284,2.27611 0.0505,0.78515 -0.0155,1.61154 -0.26466,2.31844 -0.24921,0.7069 -0.70391,1.33956 -1.16452,1.84206 -0.46061,0.50251 -1.63086,1.38249 -2.31844,1.89499 -0.68759,0.5125 -1.40013,1.29007 -1.93734,2.32904 -0.53721,1.03897 -0.71462,3.07359 -0.89985,4.30871 -0.18524,1.23513 -0.63236,2.39036 -1.13277,3.49356 -0.50041,1.10319 -1.43544,2.31231 -2.30786,3.33475 -0.87241,1.02244 -1.79753,1.93798 -2.92188,2.69957 -1.12435,0.76158 -2.56047,1.48435 -3.94878,1.84204 -1.3883,0.3577 -2.83148,0.52632 -3.83231,0.3176 -1.00084,-0.20872 -1.58832,-0.53605 -2.03261,-1.14334 -0.44429,-0.60729 -0.40217,-1.49876 -0.40229,-2.03262 -2.1e-4,-0.86162 1.09258,-3.195 1.75736,-4.47809 0.66478,-1.28309 1.31935,-2.15585 2.18082,-3.23948 0.86147,-1.08364 1.66219,-2.23012 2.5937,-3.30299 0.93152,-1.07288 2.10639,-2.11073 2.76309,-3.12303 0.6567,-1.0123 0.95237,-1.94312 1.27038,-2.79485 0.31801,-0.85173 0.61831,-1.45792 0.7881,-2.37469 0.34249,-1.8492 1.0147,-3.47955 1.41389,-4.36892 0.3992,-0.88937 1.29694,-1.70155 2.202,-2.1173 0.90505,-0.41575 2.57951,-0.39576 2.81601,-0.35994 0.2365,0.0358 0.50816,-0.0635 0.50816,-0.0635 0,0 -2.06871,-2.56009 -3.55707,-3.64176 -1.48836,-1.08166 -4.17475,-2.16427 -6.03432,-2.32903 -1.85958,-0.16475 -5.43214,0.66153 -6.24605,1.05865 -0.81391,0.39713 -2.65409,1.53622 -3.78998,2.64663 -1.13588,1.11041 -2.16,2.76477 -2.94305,4.17109 -0.78304,1.40633 -1.25168,3.04811 -1.6515,4.55221 -0.39982,1.50409 -0.60906,3.3793 -0.67753,5.31443 -0.0685,1.93513 0.1717,8.0104 0.25408,11.07351 0.0824,3.06312 0.25407,7.30469 0.25407,7.30469 l -9.294972,5.92845 c 0,0 0.498342,-19.20513 0.48698,-21.68119 -0.01136,-2.47606 0.110066,-5.08593 -1.100997,-9.40084 -1.211063,-4.3149 -3.359433,-6.07662 -4.298131,-7.28352 -0.938697,-1.2069 -2.390212,-1.95389 -3.789973,-2.64663 -1.399762,-0.69275 -4.068314,-1.07578 -4.718179,-1.10463 -0.649866,-0.0289 -3.202787,0.32308 -4.231819,0.67284 -1.029031,0.34976 -3.09446,1.76929 -4.04512,2.54077 -0.95066,0.77148 -2.59038,2.82433 -2.59038,2.82433 0,0 2.01416,-0.0723 2.83932,0.25408 0.82517,0.32638 1.31135,0.75408 1.94792,1.52446 0.63657,0.77039 0.936787,1.34946 1.384581,2.60961 0.447793,1.26015 0.546527,3.14697 1.126245,4.58365 0.579717,1.43667 1.294902,2.75189 2.196417,3.9754 0.901515,1.22351 3.044532,3.79584 3.846672,4.66878 0.80214,0.87294 2.811431,3.59986 3.557071,5.08153 0.74564,1.48168 1.137583,2.83619 1.185691,3.55707 0.04811,0.72089 -0.04822,1.36352 -0.169384,1.86323 -0.165673,0.68328 -1.153158,1.082 -2.147691,1.23531 -0.994532,0.15331 -1.611461,0.18832 -3.313708,-0.16939 -1.702248,-0.3577 -3.343037,-1.21423 -4.756415,-2.17161 -1.413378,-0.95738 -2.794769,-2.59104 -3.701649,-3.73717 -0.90687,-1.14614 -1.28998,-2.00834 -1.84826,-3.47282 -0.55828,-1.46448 -0.76141,-4.3755 -1.00133,-5.31976 -0.23992,-0.94425 -0.94727,-1.93597 -1.49496,-2.62546 -0.54769,-0.68949 -1.52651,-1.27375 -2.49585,-2.07239 -0.96934,-0.79864 -1.47387,-1.51717 -1.912844,-2.72042 -0.43897,-1.20326 -0.27011,-2.21832 -0.1095,-2.99887 0.16062,-0.78054 0.47777,-1.33966 0.47777,-1.33966 0,0 -1.0205,0.39615 -1.5886,0.4829 -0.5681,0.0867 -1.65746,0.0613 -2.49071,-0.32937 -0.83325,-0.39068 -1.64481,-1.32078 -2.07283,-1.86279 -0.42803,-0.542 -1.29284,-1.64188 -2.16692,-2.06725 -0.87408,-0.42538 -1.95116,-0.82992 -2.70076,-0.95642 -0.74959,-0.12649 -2.50644,-0.37514 -3.79104,-0.75753 -1.28459,-0.3824 -2.89594,-1.17622 -4.05539,-1.98858 -1.15944,-0.81236 -1.78748,-1.47006 -2.69987,-2.78413 -0.9124,-1.31406 -1.9647,-3.27188 -2.54591,-5.16622 -0.5812,-1.89433 -1.10309,-4.43591 -1.05138,-6.02298 0.0517,-1.58706 0.33316,-2.74433 0.88714,-3.37786 0.55398,-0.63352 1.20058,-0.50379 1.93383,-0.42815 0.73325,0.0756 1.55655,0.87687 2.08692,1.38458 0.53036,0.50771 2.94231,3.34094 4.18456,4.51349 1.24224,1.17255 3.40036,2.81608 4.7727,3.7517 1.37234,0.93563 2.37131,1.42155 3.60713,2.00267 1.23581,0.58112 3.77325,1.26425 5.41516,2.02278 1.64191,0.75852 3.042244,1.70716 3.830814,2.92914 0.78858,1.22198 1.01631,3.98053 1.01631,3.98053 0,0 2.26638,-3.01536 3.64177,-4.06522 1.37538,-1.04985 2.99335,-1.83489 4.733364,-2.35171 1.740013,-0.51682 3.805439,-0.6814 5.59908,-0.52783 1.793641,0.15358 4.043541,0.74033 5.146555,1.22034 1.103014,0.48001 3.441415,2.30308 4.762429,3.69181 1.321014,1.38874 2.85186,3.86099 3.148584,4.32401 0.296723,0.46302 0.789605,1.09629 0.789605,1.09629 0,0 1.176174,-29.64748 1.111584,-30.91265 -0.0366,-0.71776 -0.30709,-2.32543 -0.5505,-2.8266 -0.243408,-0.50117 -0.824831,-1.05911 -1.111585,-1.06925 z"
       id="path41398"
       sodipodi:nodetypes="zzssczzzczzzzczczzzzzczzszzssczzzzzczzzzczzzzzczssczsssczzzzczzcczzzssczzzzczzzzczzzzzzzczzzczzzzzczzzzczzzzzzczzzzcszzzzzzszzzzzzzzzzzzczzzzzzzzzzzzszzzzzszzzczzzzzzzzcczzzzzzzczzzzzzzzszzzzzzzzzzczzzzzzzzzzzzzzzzzzczzzzzzcszzz" /><path
       style="fill:#866130;fill-opacity:1;stroke-width:0.264583"
       d="m 55.055945,172.6605 8.55391,6.69068 c 0,0 -1.31032,1.40959 -1.46714,2.91462 -0.10369,0.99513 0.081,2.26746 0.37598,3.01384 0.29501,0.74638 1.44179,1.85773 2.19216,2.28669 0.75037,0.42896 2.20249,0.72123 2.96636,0.76222 0.76386,0.041 1.522328,-0.16938 1.522328,-0.16938 0,0 -0.686228,0.66744 -1.183558,0.71988 -0.49734,0.0524 -1.65226,-0.007 -2.45138,-0.20447 -0.79913,-0.19748 -1.89342,-1.00046 -2.47831,-1.46758 -0.58489,-0.46712 -1.13758,-1.45531 -1.46927,-2.24691 -0.33169,-0.79161 -0.38973,-1.95088 -0.3362,-2.51038 0.0535,-0.5595 0.30393,-1.34394 0.5505,-1.74346 0.24656,-0.39952 0.88927,-1.35508 0.88927,-1.35508 z"
       id="path41519"
       sodipodi:nodetypes="ccszzzczzzzzzcc" /><path
       style="fill:#866130;fill-opacity:1;stroke-width:0.272658"
       d="m 85.868904,204.52248 -6.759281,-8.97967 c 0,0 -1.431755,1.36971 -2.95736,1.53045 -1.008735,0.10627 -2.297681,-0.0904 -3.053347,-0.40122 -0.755665,-0.31091 -1.87909,-1.5153 -2.311956,-2.30263 -0.432842,-0.78735 -0.725452,-2.30972 -0.765129,-3.11026 -0.0397,-0.80055 0.175409,-1.59486 0.175409,-1.59486 0,0 -0.67808,0.71751 -0.732467,1.23854 -0.0543,0.52103 0.0029,1.73141 0.20115,2.5693 0.198192,0.83786 1.00919,1.9865 1.48113,2.60053 0.47194,0.61404 1.472026,1.19554 2.273426,1.54502 0.801414,0.34948 1.976099,0.41307 2.543234,0.35832 0.567138,-0.0547 1.362718,-0.31527 1.76821,-0.5727 0.405488,-0.25741 1.375492,-0.9286 1.375492,-0.9286 z"
       id="path41519-0"
       sodipodi:nodetypes="ccszzzczzzzzzcc"
       inkscape:transform-center-x="-0.93161409"
       inkscape:transform-center-y="0.42346095" /><path
       style="fill:#866130;fill-opacity:1;stroke-width:0.259612"
       d="m 149.07605,172.94593 -8.23551,6.69068 c 0,0 1.26155,1.40959 1.41253,2.91462 0.0998,0.99513 -0.078,2.26746 -0.36198,3.01384 -0.28403,0.74638 -1.38812,1.85773 -2.11056,2.28669 -0.72244,0.42896 -2.12051,0.72123 -2.85595,0.76222 -0.73542,0.041 -1.46566,-0.16938 -1.46566,-0.16938 0,0 0.66068,0.66744 1.1395,0.71988 0.47883,0.0524 1.59076,-0.007 2.36013,-0.20447 0.76939,-0.19748 1.82295,-1.00046 2.38607,-1.46758 0.56311,-0.46712 1.09523,-1.45531 1.41457,-2.24691 0.31935,-0.79161 0.37523,-1.95088 0.32369,-2.51038 -0.0515,-0.5595 -0.29262,-1.34394 -0.53001,-1.74346 -0.23738,-0.39952 -0.85617,-1.35508 -0.85617,-1.35508 z"
       id="path41519-8"
       sodipodi:nodetypes="ccszzzczzzzzzcc" /><path
       style="fill:#866130;fill-opacity:1;stroke-width:0.26637"
       d="m 119.65565,204.17403 6.45112,-8.97967 c 0,0 1.36648,1.36971 2.82253,1.53045 0.96274,0.10627 2.19292,-0.0904 2.91414,-0.40122 0.72121,-0.31091 1.79342,-1.5153 2.20655,-2.30263 0.41311,-0.78735 0.69238,-2.30972 0.73024,-3.11026 0.0379,-0.80055 -0.16741,-1.59486 -0.16741,-1.59486 0,0 0.64717,0.71751 0.69908,1.23854 0.0518,0.52103 -0.003,1.73141 -0.19198,2.5693 -0.18916,0.83786 -0.96318,1.9865 -1.41361,2.60053 -0.45042,0.61404 -1.40491,1.19554 -2.16977,1.54502 -0.76488,0.34948 -1.88601,0.41307 -2.42729,0.35832 -0.54128,-0.0547 -1.30059,-0.31527 -1.68759,-0.5727 -0.387,-0.25741 -1.31279,-0.9286 -1.31279,-0.9286 z"
       id="path41519-0-2"
       sodipodi:nodetypes="ccszzzczzzzzzcc"
       inkscape:transform-center-x="0.88914326"
       inkscape:transform-center-y="0.42346095" /><path
       style="fill:#754e27;fill-opacity:1;stroke-width:0.264583"
       d="m 105.27416,152.22743 1.56005,-0.31635 c 0,0 1.68834,-0.17603 2.98406,0.0139 1.69675,0.24872 4.04897,1.0093 5.63595,2.29686 1.06049,0.8604 3.90618,2.80611 5.50955,3.9525 1.60337,1.14639 4.37171,2.96438 5.09035,3.38359 0.71864,0.4192 4.56528,2.74599 4.56528,2.74599 l 2.80075,1.71554 c 0,0 -8.14455,-4.43159 -9.28239,-5.09034 -1.13784,-0.65876 -5.0583,-3.22112 -5.92876,-3.89262 -1.04801,-0.80847 -4.01966,-2.86427 -4.79818,-3.22359 -0.77852,-0.35932 -2.47363,-1.1718 -4.50902,-1.31719 -1.42524,-0.10181 -2.52882,0.1125 -3.18094,0.1125 -0.4192,0 -1.31656,0.14679 -1.28574,-0.12309 0.30031,-0.16507 0.83904,-0.2577 0.83904,-0.2577 z"
       id="path43772"
       sodipodi:nodetypes="ccsszsccssssscc" /><path
       style="fill:#754e27;fill-opacity:1;stroke-width:0.278442"
       d="m 99.676185,152.10932 -1.671307,-0.32702 c 0,0 -1.808748,-0.18199 -3.196874,0.0144 -1.817759,0.25713 -4.337731,1.04339 -6.0379,2.37445 -1.136121,0.88947 -4.184762,2.9009 -5.902482,4.08601 -1.717718,1.18512 -4.683491,3.06452 -5.45338,3.4979 -0.76989,0.43336 -4.890866,2.83875 -4.890866,2.83875 l -3.000498,1.77348 c 0,0 8.725409,-4.58129 9.944389,-5.26229 1.21899,-0.68101 5.419055,-3.32993 6.351592,-4.02411 1.122756,-0.83578 4.306336,-2.96103 5.140372,-3.33249 0.834046,-0.37145 2.650054,-1.21138 4.830601,-1.36168 1.526885,-0.10525 2.709176,0.1163 3.407797,0.1163 0.449098,0 1.309631,0.17537 1.377441,-0.12724 -0.11186,-0.10049 -0.898885,-0.26646 -0.898885,-0.26646 z"
       id="path43772-7"
       sodipodi:nodetypes="ccsszsccssssscc" /><path
       style="fill:#754e27;fill-opacity:1;stroke-width:0.264583"
       d="m 104.4599,151.44035 1.03003,-0.56378 c 0,0 2.02896,-1.14378 2.99432,-1.61694 0.96536,-0.47316 2.22694,-0.90799 3.41353,-1.19773 1.28755,-0.3144 4.2626,-0.99739 5.59938,-1.09293 3.03923,-0.3743 5.74909,-0.23954 6.90191,-0.17966 0.95689,0.0497 4.02305,0.24658 4.13223,0.28 0.1039,0.57864 0.26485,1.59549 0.69845,2.42655 0.53899,1.03303 1.19757,2.26091 2.191,2.93775 1.25585,0.85564 2.19334,1.45974 3.23386,1.85648 -0.97315,-0.63628 -2.72062,-1.70731 -3.40604,-2.51523 -0.90992,-1.07256 -2.04362,-3.59318 -2.04362,-4.55137 0,-0.95818 -0.17966,-0.11977 -0.17966,-0.11977 0,0 6.34796,1.07796 7.18637,1.25761 0.83841,0.17966 6.43678,0.83842 8.20444,0.83842 h 3.41353 c 0,0 -3.86356,-0.36296 -5.21012,-0.4791 -0.85427,-0.0737 -6.26887,-1.00551 -6.26887,-1.00551 0,0 1.11412,-1.18194 2.37625,-1.74926 3.62236,-1.62824 4.62087,-1.48839 4.98019,-1.5333 -0.53898,-0.0674 -1.29365,-0.0338 -2.31245,0.19782 -1.10335,0.25086 -2.62239,0.67008 -3.4608,1.08929 -0.83841,0.4192 -1.75362,1.28844 -1.75362,1.28844 l -0.56741,0.57468 c 0,0 -3.84294,-0.93256 -5.95356,-1.17292 -3.33938,-0.38029 -8.53896,-0.5039 -8.53896,-0.5039 0,0 0.4962,-0.93401 1.93692,-2.84912 1.11398,-1.48077 2.854,-2.95986 2.854,-2.95986 0,0 -2.34193,1.52284 -3.24176,2.59754 -0.4723,0.56408 -2.16919,2.68637 -2.29924,3.27133 -1.2734,-0.0714 -2.4584,0.017 -3.84187,0.20446 -1.38348,0.18741 -2.47464,0.3944 -4.57067,0.99327 -2.09602,0.59886 -4.61125,1.67682 -5.32989,2.09602 -0.71864,0.41921 -1.77324,1.17806 -2.0062,1.46722 -0.23295,0.28917 -0.16167,0.7135 -0.16167,0.7135 z"
       id="path44220"
       sodipodi:nodetypes="cczscscsscsscsscscscssccscscsczsszc" /><path
       style="fill:#754e27;fill-opacity:1;stroke-width:0.264583"
       d="m 104.04482,149.88212 c 0.0776,-0.0284 0.23306,-0.0532 0.51085,-0.31751 0.27778,-0.26428 0.83841,-1.1341 1.56454,-2.09602 0.74382,-0.98536 2.83157,-3.65298 3.1066,-3.97497 0.88796,-1.03957 5.21012,-5.32989 5.21012,-5.32989 0,0 6.64327,-5.90889 7.18637,-6.34796 1.36109,-1.10038 3.29375,-2.635 3.29375,-2.635 0,0 1.48688,0.36295 2.4977,0.48273 1.13617,0.13463 3.7367,0.34403 5.84769,0.23923 2.111,-0.1048 5.02215,-0.59855 5.60815,-0.78185 0.86492,-0.27055 3.17398,-1.25761 3.59319,-1.37738 0.4192,-0.11978 1.25761,-0.53898 1.25761,-0.53898 l -2.27568,0.71864 c 0,0 -2.44786,0.73734 -3.29376,0.8384 -0.23785,0.0284 -2.57904,0.31001 -3.57565,0.38745 -0.9966,0.0774 -3.88566,0.0873 -3.88566,0.0873 -0.78197,-0.0157 -2.55726,-0.19977 -3.45555,-0.31954 -0.8983,-0.11977 -1.5994,-0.51448 -1.5994,-0.51448 l 7.02609,-4.83701 7.16699,-4.44539 c 0,0 0.76609,0.39061 2.69864,0.80847 0.92065,0.19907 3.22263,0.0823 3.58944,0.0299 0.35571,-0.0508 2.15591,-0.29943 2.15591,-0.29943 0,0 -2.01698,0.0521 -3.28627,-0.007 -1.26929,-0.0596 -1.96809,-0.23642 -2.52272,-0.35933 -0.55463,-0.1229 -1.80408,-0.71489 -1.80408,-0.71489 0,0 12.2696,-8.29995 12.7354,-8.55403 0.46581,-0.25407 6.69069,-5.12387 6.69069,-5.12387 l -17.72185,11.72987 -9.9725,6.26722 c 0,0 0.19056,-3.01716 0.33877,-3.72646 0.14821,-0.7093 0.88927,-4.65807 1.14334,-5.33561 0.25408,-0.67754 1.99027,-4.78511 1.99027,-4.78511 0,0 -2.43936,4.69105 -2.58311,5.12388 -0.46882,1.41159 -1.20186,4.31948 -1.35508,5.25092 -0.11027,0.67037 -0.38111,3.89584 -0.38111,3.89584 0,0 -6.28465,4.26825 -8.51157,6.22487 -2.22692,1.95662 -5.4203,4.53104 -5.4203,4.53104 0,0 -0.38111,-1.45261 -0.50815,-2.46892 -0.12704,-1.0163 -0.19456,-3.29834 -0.0971,-4.41721 0.0975,-1.11886 0.93796,-4.14055 0.98637,-4.63201 -0.2503,0.19727 -0.52772,1.0212 -0.85676,1.86154 -0.32905,0.84034 -0.71005,2.50011 -0.79474,3.21999 -0.0847,0.71988 -0.0489,3.08437 0.0326,3.80087 0.10741,0.94446 0.50067,3.27842 0.50067,3.27842 0,0 -6.67336,6.51381 -7.30855,7.23369 -0.6352,0.71988 -4.82372,5.93594 -5.20484,6.52879 -0.38111,0.59284 -0.66117,0.97638 -0.6663,1.14569 -0.007,0.21834 0.0332,0.2664 0.069,0.29739 0.098,0.0151 0.20246,-0.0134 0.28003,-0.0418 z"
       id="path44231"
       sodipodi:nodetypes="zzsscscszssccszsscccssczzcsccczscssczcszczsscsssczz" /><path
       style="fill:#754e27;fill-opacity:1;stroke-width:0.264583"
       d="m 102.69627,149.53579 0.29944,-0.47908 c 0,0 0.0299,-5.68922 0.0299,-5.9587 0,-0.26949 -0.0604,-19.65029 -0.0604,-19.65029 l 0.0847,-11.72986 c 0,0 1.47955,-1.44021 1.86067,-1.82133 0.38111,-0.38111 2.7525,-3.15071 2.7525,-3.15071 0,0 2.03517,-3.03138 2.62802,-4.04768 0.59284,-1.01631 1.64893,-3.686678 1.64893,-3.686678 l 0.42346,-1.56681 c 0,0 -1.05352,2.46591 -1.23061,2.767468 -0.13213,0.34648 -0.87653,2.01166 -1.7734,3.24825 -0.92081,1.2696 -1.71608,2.34658 -2.1173,2.82735 -0.35376,0.4239 -1.82088,2.0848 -2.202,2.46591 -0.38112,0.38111 -2.03261,1.99027 -2.03261,1.99027 V 92.831496 c 0,0 2.26926,-1.65635 2.87953,-2.202 1.76545,-1.5785 3.38769,-4.02288 3.64177,-4.44634 0.25407,-0.42346 1.60915,-2.62546 1.60915,-2.62546 0,0 -1.7364,2.29038 -2.11731,2.7525 -0.84266,1.02232 -1.56464,2.02695 -3.09126,3.38768 -1.34754,1.2011 -2.87954,2.28669 -2.92188,2.28669 -0.0423,0 -0.12704,-7.74933 -0.12704,-7.74933 l -0.16938,-11.009988 -0.25408,11.306408 -0.12704,14.312986 c 0,0 -1.21631,-0.37744 -2.752501,-1.48212 -0.76274,-0.548476 -2.32985,-1.709616 -3.64176,-3.175956 -0.40721,-0.45515 -2.11731,-2.32904 -2.11731,-2.32904 0,0 2.24434,3.21831 2.87954,3.81116 0.63519,0.59284 2.32903,2.201996 3.00657,2.583116 0.677541,0.38111 2.625461,1.35507 2.625461,1.35507 v 22.909238 c 0,0 -1.57233,-0.6294 -1.99541,-0.88413 -1.441531,-0.86792 -2.542451,-2.00479 -3.255511,-2.67294 -0.3496,-0.32758 -1.69225,-1.83073 -2.4411,-2.8496 -1.15494,-1.33929 -2.10051,-2.86712 -2.37577,-3.31176 -0.25413,-0.41052 -1.4927,-2.81601 -1.4927,-2.81601 0,0 1.12562,2.92127 1.94792,4.27695 0.81441,1.34267 2.74009,3.82568 3.2782,4.5259 0.45649,0.59403 2.4907,2.51852 3.67639,3.19606 1.185701,0.67754 2.573291,1.17072 2.573291,1.17072 l 0.0847,25.83112 z"
       id="path44233"
       sodipodi:nodetypes="ccsccscscccsssccsscsssccccsscssccsscscsssccc" /><path
       style="fill:#754e27;fill-opacity:1;stroke-width:0.264583"
       d="m 101.34962,149.86577 c 0,0 -0.004,-0.46762 -0.22564,-0.89861 -0.22143,-0.43099 -1.660782,-2.45504 -2.259645,-3.0539 -0.598866,-0.59886 -4.47651,-5.34486 -6.677337,-7.54569 -0.423462,-0.42346 -5.932138,-5.35616 -6.258131,-5.65927 -0.853381,-0.79349 -6.856995,-5.4796 -6.856995,-5.4796 0,0 0.299432,-1.58699 0.209603,-3.1141 -0.08983,-1.5271 -0.254518,-3.29375 -0.389263,-4.22199 -0.09931,-0.68412 -0.838409,-3.2638 -1.048012,-3.7429 -0.156485,-0.35768 -1.67682,-3.62313 -1.67682,-3.62313 0,0 1.452245,4.02737 1.67682,4.97057 0.210937,0.88593 0.598864,2.79969 0.658752,3.65308 0.04862,0.69282 0.164685,2.87454 0.149714,3.68301 -0.0084,0.45305 -0.209603,1.94631 -0.209603,1.94631 0,0 -6.886937,-4.76097 -7.545689,-5.21012 -0.658749,-0.44915 -5.389779,-3.35364 -5.389779,-3.35364 0,0 -7.70173,-4.76297 -8.68353,-5.44966 -1.74266,-1.21884 -11.76768,-7.99484 -11.76768,-7.99484 0,0 10.83944,8.1745 11.34847,8.56376 0.50904,0.38926 13.204962,8.3841 13.204962,8.3841 l 0.232063,0.17966 c 0,0 -1.534595,0.98063 -3.945025,1.85648 -0.99739,0.36241 -5.82273,1.76301 -6.15211,1.76301 -0.32937,0 2.6279,-0.22532 3.62313,-0.44915 0.94617,-0.21279 4.40165,-1.46722 5.21012,-1.82653 0.808476,-0.35932 1.870235,-1.01444 1.870235,-1.01444 l 4.551368,3.08415 c 0,0 4.491482,3.1141 4.970571,3.5333 0.479092,0.41921 4.341767,3.41353 4.341767,3.41353 0,0 -1.871451,1.22767 -2.455344,1.45224 -0.982937,0.37806 -3.346936,1.0301 -3.952503,1.19773 -0.60688,0.16799 -2.275684,0.58389 -4.221994,0.85338 -0.415241,0.0575 -1.616932,0.17966 -1.616932,0.17966 0,0 2.052843,0.10655 2.575115,0.0599 1.420501,-0.12689 2.635004,-0.38926 3.503356,-0.53898 0.868354,-0.14971 3.552864,-0.97809 4.102222,-1.19773 0.603069,-0.24111 2.664944,-1.55705 2.664944,-1.55705 l 3.683016,3.3237 c 0,0 3.772842,3.6381 5.060402,5.09035 0.828848,0.93487 5.464635,6.36293 5.97367,7.08157 0.509032,0.71863 1.347442,1.55704 1.347442,1.55704 z"
       id="path44235"
       sodipodi:nodetypes="czssscssscssscscscsccssssccscssscsssccsscc" /><path
       style="fill:#754e27;fill-opacity:1;stroke-width:0.264583"
       d="m 100.37851,151.26009 c -0.0519,-0.36127 -0.24349,-0.65636 -0.508147,-0.80457 -0.297882,-0.16681 -2.286688,-1.31274 -2.71015,-1.5033 -0.329934,-0.14847 -3.035704,-1.23848 -4.192262,-1.57738 -2.276105,-0.66696 -3.984215,-0.95887 -6.224876,-1.15394 -2.240661,-0.19507 -4.869802,-0.14821 -6.478953,-0.12703 -0.682754,0.009 -2.000855,0.14821 -2.000855,0.14821 0,0 -1.442558,-1.59103 -2.022026,-2.13848 -0.61104,-0.57728 -1.439767,-0.97396 -1.439767,-0.97396 0,0 1.032871,1.02654 1.581779,1.70368 0.19493,0.24047 1.223119,1.46479 1.223119,1.46479 l -2.190878,0.19804 c 0,0 -2.435783,0.42754 -3.028629,0.59692 -0.592844,0.16939 -2.675068,0.48035 -3.098529,0.56504 -0.423451,0.0847 -3.210151,0.51072 -3.210151,0.51072 0,0 -3.35593,0.50815 -3.89585,0.56108 -0.37929,0.0372 -4.95449,0.49757 -4.95449,0.49757 0,0 2.49843,0.0635 3.17596,0.0211 0.97396,-0.0423 2.86895,-0.13764 4.02288,-0.3176 0.99453,-0.15511 4.53103,-0.59285 5.039187,-0.67754 0.508149,-0.0847 2.710144,-0.38112 3.938181,-0.63519 1.228037,-0.25408 3.218305,-0.5505 3.853495,-0.59285 0.635193,-0.0423 2.879535,-0.21173 3.302995,-0.21173 0.423463,0 4.446341,0.0423 4.446341,0.0423 0,0 -1.056997,1.08062 -1.778537,1.73619 -1.85264,1.68326 -3.101874,2.44854 -3.641764,2.83719 -1.029765,0.7413 -2.667802,1.90557 -2.667802,1.90557 l 2.159651,-0.97396 c 0,0 1.693842,-0.95278 2.329034,-1.39742 0.590772,-0.41354 2.005372,-1.41429 3.101852,-2.46667 0.524577,-0.50347 1.259796,-1.47152 1.259796,-1.47152 0,0 2.161042,0.063 2.879533,0.15881 1.746776,0.23291 4.222446,0.85375 5.399129,1.28097 2.65429,0.96371 3.778355,1.70132 4.59455,2.1173 0.365483,0.18627 1.198094,0.60268 1.198094,0.60268 0,0 0.42064,0.20332 0.53809,0.075 z"
       id="path44237"
       sodipodi:nodetypes="cssszscscsccsscsccssscscssccsscssscc" /></g></svg>
